<svg xmlns="http://www.w3.org/2000/svg" width="17.68" height="15.88" viewBox="0 0 17.68 15.88">
  <metadata><?xpacket begin="﻿" id="W5M0MpCehiHzreSzNTczkc9d"?>
<x:xmpmeta xmlns:x="adobe:ns:meta/" x:xmptk="Adobe XMP Core 5.6-c142 79.160924, 2017/07/13-01:06:39        ">
   <rdf:RDF xmlns:rdf="http://www.w3.org/1999/02/22-rdf-syntax-ns#">
      <rdf:Description rdf:about=""/>
   </rdf:RDF>
</x:xmpmeta>
                                                                                                    
                                                                                                    
                                                                                                    
                                                                                                    
                                                                                                    
                                                                                                    
                                                                                                    
                                                                                                    
                                                                                                    
                                                                                                    
                                                                                                    
                                                                                                    
                                                                                                    
                                                                                                    
                                                                                                    
                                                                                                    
                                                                                                    
                                                                                                    
                                                                                                    
                                                                                                    
                           
<?xpacket end="w"?></metadata>
<defs>
    <style>
      .cls-1 {
        fill: #fff;
        fill-rule: evenodd;
      }
    </style>
  </defs>
  <path class="cls-1" d="M1200.98,4408.51h-2.67v-2.67a0.376,0.376,0,0,0-.37-0.37h-0.76a0.376,0.376,0,0,0-.37.37v2.67h-2.67a0.369,0.369,0,0,0-.37.37v0.76a0.367,0.367,0,0,0,.37.36h2.67v2.67a0.369,0.369,0,0,0,.37.37h0.76a0.369,0.369,0,0,0,.37-0.37V4410h2.67a0.367,0.367,0,0,0,.37-0.36v-0.76A0.369,0.369,0,0,0,1200.98,4408.51Zm-8.97,2.34a3.155,3.155,0,0,1-1.08-1.16c0-.33.03-0.49,0.76-1.05a3.517,3.517,0,0,0,1.47-2.75,3.674,3.674,0,0,0-.77-2.34h0.37a0.341,0.341,0,0,0,.22-0.07l1.05-.76a0.381,0.381,0,0,0,.14-0.41,0.388,0.388,0,0,0-.36-0.26h-4.69a4.73,4.73,0,0,0-1.55.27,4.03,4.03,0,0,0-2.9,3.54,3.769,3.769,0,0,0,3.83,3.78,2.136,2.136,0,0,0-.06.5,1.856,1.856,0,0,0,.25.93h-0.06a5.134,5.134,0,0,0-4.7,2.56,2.874,2.874,0,0,0-.28,1.19,2.2,2.2,0,0,0,.3,1.11,4.116,4.116,0,0,0,2.72,1.76,8.876,8.876,0,0,0,2.16.26,6.941,6.941,0,0,0,1.91-.26,3.822,3.822,0,0,0,3.07-3.49A3.621,3.621,0,0,0,1192.01,4410.85Zm-5.93,3.47c0-1.1,1.4-2.07,3-2.07h0.04a3.383,3.383,0,0,1,1.01.15c0.11,0.08.22,0.15,0.32,0.22a2.719,2.719,0,0,1,1.36,1.37,1.372,1.372,0,0,1,.05.4c0,1.37-1.02,2.07-3.04,2.07C1187.28,4416.46,1186.08,4415.52,1186.08,4414.32Zm1.46-10.43a1.227,1.227,0,0,1,.94-0.43h0.04a2.775,2.775,0,0,1,2.22,2.57,2.537,2.537,0,0,1-.47,1.96,1.209,1.209,0,0,1-.95.44h-0.02c-1.01-.03-2.03-1.24-2.21-2.62A2.426,2.426,0,0,1,1187.54,4403.89Z" transform="translate(-1183.66 -4402.06)"/>
</svg>
