<svg xmlns="http://www.w3.org/2000/svg" width="33.375" height="48.312" viewBox="0 0 33.375 48.312">
  <metadata><?xpacket begin="﻿" id="W5M0MpCehiHzreSzNTczkc9d"?>
<x:xmpmeta xmlns:x="adobe:ns:meta/" x:xmptk="Adobe XMP Core 5.6-c142 79.160924, 2017/07/13-01:06:39        ">
   <rdf:RDF xmlns:rdf="http://www.w3.org/1999/02/22-rdf-syntax-ns#">
      <rdf:Description rdf:about=""/>
   </rdf:RDF>
</x:xmpmeta>
                                                                                                    
                                                                                                    
                                                                                                    
                                                                                                    
                                                                                                    
                                                                                                    
                                                                                                    
                                                                                                    
                                                                                                    
                                                                                                    
                                                                                                    
                                                                                                    
                                                                                                    
                                                                                                    
                                                                                                    
                                                                                                    
                                                                                                    
                                                                                                    
                                                                                                    
                                                                                                    
                           
<?xpacket end="w"?></metadata>
<defs>
    <style>
      .cls-1 {
        fill: #fff;
        fill-rule: evenodd;
      }
    </style>
  </defs>
  <path id="Icon" class="cls-1" d="M579.664,235.266v-0.1l0-.025v-0.013l-0.029-.586-0.231-4.746a2.32,2.32,0,0,0-2.193-2.194l-4.752-.231-0.592-.029c-0.058,0-.1,0-0.131,0-0.125,0-.25.009-0.377,0.015a10.309,10.309,0,0,0-1.855-7.042h0a9.2,9.2,0,0,0-.924-1.079c-0.021-.02-0.051-0.051-0.094-0.092l-0.439-.4-3.524-3.2a2.32,2.32,0,0,0-3.1,0l-3.52,3.193-0.433.394-0.01.008-0.02.018c-0.023.025-.048,0.048-0.074,0.073a9.356,9.356,0,0,0-.926,1.083,10.235,10.235,0,0,0-1.906,6.018c0,0.345.022,0.684,0.053,1.021-0.125-.006-0.25-0.015-0.375-0.015-0.031,0-.074,0-0.133,0l-0.59.029-4.754.231a2.319,2.319,0,0,0-2.191,2.194l-0.231,4.746-0.029.586v0.013l0,0.025v0.1a9.145,9.145,0,0,0,.112,1.42,9.972,9.972,0,0,0,1.361,3.649,2.313,2.313,0,0,0-1.211,1.9l-0.231,4.746-0.029.586v0.013l0,0.025v0.1a9.155,9.155,0,0,0,.112,1.42,10.442,10.442,0,0,0,8.515,8.509,8.981,8.981,0,0,0,1.416.111l0.053,0,0.682-.035,4.388-.213v4.237a1.525,1.525,0,0,0,3.049,0V257.51l4.391,0.213,0.681,0.035,0.051,0a8.988,8.988,0,0,0,1.418-.111,10.448,10.448,0,0,0,8.516-8.509,9.277,9.277,0,0,0,.111-1.42v-0.1l0-.025v-0.013l-0.029-.586-0.231-4.746a2.313,2.313,0,0,0-1.211-1.9,9.992,9.992,0,0,0,1.362-3.649A9.267,9.267,0,0,0,579.664,235.266ZM558.5,221.807a6.364,6.364,0,0,1,.666-0.78c0.01-.011.022-0.021,0.031-0.03l0.416-.379,3.364-3.051,3.369,3.055,0.424,0.385a0.086,0.086,0,1,0,.019.019,7.059,7.059,0,0,1,.664.779,7.7,7.7,0,0,1,1.422,4.526,8.053,8.053,0,0,1-.146,1.513,10.4,10.4,0,0,0-4.014,2.51,10.569,10.569,0,0,0-1.738,2.3,10.553,10.553,0,0,0-1.741-2.3,10.382,10.382,0,0,0-4.013-2.51,8.119,8.119,0,0,1-.145-1.512A7.679,7.679,0,0,1,558.5,221.807Zm-9.674,13.416,0.028-.563,0.22-4.534,4.541-.223,0.573-.027a0.172,0.172,0,1,0,.027,0,6.737,6.737,0,0,1,.965.074l0.056,0.007a7.689,7.689,0,0,1,4.205,2.194,7.792,7.792,0,0,1,2.01,3.393v7.486c-0.07-.076-0.138-0.153-0.215-0.227-0.089-.092-0.185-0.173-0.279-0.261a10.187,10.187,0,0,0-5.326-2.647h0a9.023,9.023,0,0,0-1.416-.109c-0.031,0-.074,0-0.133,0l-0.59.029-2.883.14a7.605,7.605,0,0,1-1.7-3.666,6.586,6.586,0,0,1-.08-1.023v-0.043Zm8.112,19.964-0.551.027H556.33a6.924,6.924,0,0,1-1.031-.079,7.91,7.91,0,0,1-6.4-6.4,6.564,6.564,0,0,1-.08-1.022v-0.043l0.028-.563,0.22-4.535,0.508-.025,4.033-.2,0.352-.016,0.221-.012a0.087,0.087,0,1,0,.027,0,6.962,6.962,0,0,1,1.021.081,7.128,7.128,0,0,1,1.334.353,7.877,7.877,0,0,1,2.871,1.842c0.174,0.174.336,0.354,0.489,0.538a7.7,7.7,0,0,1,1.521,2.846v6.983Zm20.189-7.473a6.444,6.444,0,0,1-.08,1.022,7.913,7.913,0,0,1-6.4,6.4,6.888,6.888,0,0,1-1.029.079h-0.053l-0.552-.027-4.514-.221v-6.983a7.718,7.718,0,0,1,1.522-2.846c0.154-.184.316-0.364,0.49-0.538a7.877,7.877,0,0,1,2.871-1.842,7.128,7.128,0,0,1,1.334-.353,6.93,6.93,0,0,1,1.021-.081,0.078,0.078,0,1,0,.028,0l0.22,0.012,0.35,0.016,4.033,0.2,0.51,0.025,0.221,4.535,0.027,0.563v0.043Zm0-12.448a6.466,6.466,0,0,1-.08,1.023,7.6,7.6,0,0,1-1.705,3.666l-2.881-.14-0.592-.029c-0.058,0-.1,0-0.131,0a9.014,9.014,0,0,0-1.416.109h0a10.173,10.173,0,0,0-5.326,2.647c-0.094.088-.189,0.169-0.281,0.261-0.074.074-.145,0.151-0.215,0.227v-7.486a7.8,7.8,0,0,1,2.012-3.393,7.682,7.682,0,0,1,4.2-2.194l0.057-.007a6.723,6.723,0,0,1,.964-0.074,0.154,0.154,0,1,0,.028,0l0.57,0.027,4.543,0.223,0.221,4.534,0.027,0.563v0.043Z" transform="translate(-546.281 -214.969)"/>
</svg>
