<svg xmlns="http://www.w3.org/2000/svg" width="17.5" height="14.25" viewBox="0 0 17.5 14.25">
  <metadata><?xpacket begin="﻿" id="W5M0MpCehiHzreSzNTczkc9d"?>
<x:xmpmeta xmlns:x="adobe:ns:meta/" x:xmptk="Adobe XMP Core 5.6-c142 79.160924, 2017/07/13-01:06:39        ">
   <rdf:RDF xmlns:rdf="http://www.w3.org/1999/02/22-rdf-syntax-ns#">
      <rdf:Description rdf:about=""/>
   </rdf:RDF>
</x:xmpmeta>
                                                                                                    
                                                                                                    
                                                                                                    
                                                                                                    
                                                                                                    
                                                                                                    
                                                                                                    
                                                                                                    
                                                                                                    
                                                                                                    
                                                                                                    
                                                                                                    
                                                                                                    
                                                                                                    
                                                                                                    
                                                                                                    
                                                                                                    
                                                                                                    
                                                                                                    
                                                                                                    
                           
<?xpacket end="w"?></metadata>
<defs>
    <style>
      .cls-1 {
        fill: #fff;
        fill-rule: evenodd;
      }
    </style>
  </defs>
  <path id="Path" class="cls-1" d="M1141.75,4404.29a7.153,7.153,0,0,1-2.06.57,3.639,3.639,0,0,0,1.58-1.99,7.328,7.328,0,0,1-2.28.87,3.594,3.594,0,0,0-6.21,2.46,3.746,3.746,0,0,0,.09.82,10.162,10.162,0,0,1-7.4-3.76,3.592,3.592,0,0,0,1.11,4.8,3.611,3.611,0,0,1-1.63-.45v0.05a3.583,3.583,0,0,0,2.88,3.51,3.284,3.284,0,0,1-.94.13,3.822,3.822,0,0,1-.68-0.06,3.6,3.6,0,0,0,3.35,2.49,7.184,7.184,0,0,1-4.45,1.54,8.108,8.108,0,0,1-.86-0.05,10.215,10.215,0,0,0,15.72-8.61c0-.15-0.01-0.31-0.01-0.46A7.36,7.36,0,0,0,1141.75,4404.29Z" transform="translate(-1124.25 -4402.59)"/>
</svg>
