<svg xmlns="http://www.w3.org/2000/svg" width="17.44" height="17.06" viewBox="0 0 17.44 17.06">
  <metadata><?xpacket begin="﻿" id="W5M0MpCehiHzreSzNTczkc9d"?>
<x:xmpmeta xmlns:x="adobe:ns:meta/" x:xmptk="Adobe XMP Core 5.6-c142 79.160924, 2017/07/13-01:06:39        ">
   <rdf:RDF xmlns:rdf="http://www.w3.org/1999/02/22-rdf-syntax-ns#">
      <rdf:Description rdf:about=""/>
   </rdf:RDF>
</x:xmpmeta>
                                                                                                    
                                                                                                    
                                                                                                    
                                                                                                    
                                                                                                    
                                                                                                    
                                                                                                    
                                                                                                    
                                                                                                    
                                                                                                    
                                                                                                    
                                                                                                    
                                                                                                    
                                                                                                    
                                                                                                    
                                                                                                    
                                                                                                    
                                                                                                    
                                                                                                    
                                                                                                    
                           
<?xpacket end="w"?></metadata>
<defs>
    <style>
      .cls-1 {
        fill: #fff;
        fill-rule: evenodd;
      }
    </style>
  </defs>
  <path class="cls-1" d="M1256.03,4408.6h-11.06a3.175,3.175,0,0,0-3.18,3.18v2.56a3.182,3.182,0,0,0,3.18,3.18h11.06a3.182,3.182,0,0,0,3.18-3.18v-2.56A3.175,3.175,0,0,0,1256.03,4408.6Zm-8.74,1.99h-1.02v5.11h-0.99v-5.11h-1.03v-0.87h3.04v0.87Zm2.91,5.11h-0.88v-0.49a1.877,1.877,0,0,1-.51.41,1.036,1.036,0,0,1-.51.14,0.517,0.517,0,0,1-.46-0.2,0.885,0.885,0,0,1-.16-0.59v-3.68h0.88v3.38a0.322,0.322,0,0,0,.06.22,0.22,0.22,0,0,0,.18.08,0.424,0.424,0,0,0,.24-0.1,1.227,1.227,0,0,0,.28-0.23v-3.35h0.88v4.41Zm3.2-.91a1.056,1.056,0,0,1-.21.71,0.73,0.73,0,0,1-.6.25,1.111,1.111,0,0,1-.46-0.09,1.323,1.323,0,0,1-.38-0.3v0.34h-0.89v-5.98h0.89v1.92a1.473,1.473,0,0,1,.38-0.3,0.9,0.9,0,0,1,.41-0.11,0.789,0.789,0,0,1,.64.28,1.391,1.391,0,0,1,.22.83v2.45Zm3.05-1.19h-1.68v0.83a0.939,0.939,0,0,0,.08.48,0.337,0.337,0,0,0,.3.14,0.359,0.359,0,0,0,.31-0.12,0.908,0.908,0,0,0,.09-0.5v-0.2h0.9v0.22a1.432,1.432,0,0,1-.33,1.03,1.347,1.347,0,0,1-.99.34,1.2,1.2,0,0,1-.93-0.37,1.379,1.379,0,0,1-.34-1v-1.98a1.228,1.228,0,0,1,.37-0.93,1.337,1.337,0,0,1,.97-0.36,1.258,1.258,0,0,1,.93.33,1.312,1.312,0,0,1,.32.96v1.13Zm-1.29-1.65a0.351,0.351,0,0,0-.3.12,0.674,0.674,0,0,0-.09.4v0.44h0.78v-0.44a0.674,0.674,0,0,0-.09-0.4A0.377,0.377,0,0,0,1255.16,4411.95Zm-3.04-.02a0.407,0.407,0,0,0-.18.05,0.463,0.463,0,0,0-.19.13v2.75a0.549,0.549,0,0,0,.21.15,0.419,0.419,0,0,0,.22.05,0.287,0.287,0,0,0,.23-0.09,0.481,0.481,0,0,0,.08-0.31v-2.27a0.551,0.551,0,0,0-.09-0.34A0.349,0.349,0,0,0,1252.12,4411.93Zm-5.7-4.86h1.12v-2.74l1.3-3.85h-1.14l-0.69,2.63h-0.07l-0.73-2.63h-1.12l1.33,3.98v2.61Zm3.93,0.12a1.5,1.5,0,0,0,1.06-.36,1.258,1.258,0,0,0,.39-0.98v-2.5a1.166,1.166,0,0,0-.39-0.91,1.461,1.461,0,0,0-1.02-.36,1.652,1.652,0,0,0-1.07.34,1.1,1.1,0,0,0-.4.9v2.51a1.281,1.281,0,0,0,.39.99A1.44,1.44,0,0,0,1250.35,4407.19Zm-0.41-3.91a0.363,0.363,0,0,1,.11-0.26,0.486,0.486,0,0,1,.3-0.09,0.527,0.527,0,0,1,.32.09,0.337,0.337,0,0,1,.12.26v2.65a0.414,0.414,0,0,1-.12.31,0.472,0.472,0,0,1-.32.1,0.429,0.429,0,0,1-.31-0.1,0.445,0.445,0,0,1-.1-0.31v-2.65Zm3.36,3.86a1.3,1.3,0,0,0,.57-0.16,1.947,1.947,0,0,0,.57-0.45v0.54h1v-4.86h-1v3.69a1.475,1.475,0,0,1-.3.26,0.678,0.678,0,0,1-.28.1,0.248,0.248,0,0,1-.2-0.08,0.392,0.392,0,0,1-.07-0.25v-3.72h-0.99v4.06a1.007,1.007,0,0,0,.18.65A0.635,0.635,0,0,0,1253.3,4407.14Z" transform="translate(-1241.78 -4400.47)"/>
</svg>
